<mxfile host="65bd71144e">
    <diagram id="yLhinax2Y4ogHQlkoFgt" name="Page-1">
        <mxGraphModel dx="640" dy="540" grid="1" gridSize="10" guides="1" tooltips="1" connect="1" arrows="1" fold="1" page="1" pageScale="1" pageWidth="850" pageHeight="1100" math="0" shadow="0">
            <root>
                <mxCell id="0"/>
                <mxCell id="1" parent="0"/>
                <mxCell id="2" value="" style="edgeStyle=elbowEdgeStyle;fontSize=12;html=1;endArrow=blockThin;endFill=1;fillColor=#1ba1e2;strokeColor=#006EAF;fontColor=#006EAF;" edge="1" parent="1">
                    <mxGeometry width="160" relative="1" as="geometry">
                        <mxPoint x="40" y="40" as="sourcePoint"/>
                        <mxPoint x="200" y="40" as="targetPoint"/>
                    </mxGeometry>
                </mxCell>
                <mxCell id="3" value="" style="edgeStyle=elbowEdgeStyle;fontSize=12;html=1;endArrow=blockThin;endFill=1;startArrow=diamondThin;startFill=0;endSize=6;startSize=10;fillColor=#1ba1e2;strokeColor=#006EAF;fontColor=#006EAF;" edge="1" parent="1">
                    <mxGeometry width="160" relative="1" as="geometry">
                        <mxPoint x="40" y="120" as="sourcePoint"/>
                        <mxPoint x="200" y="120" as="targetPoint"/>
                    </mxGeometry>
                </mxCell>
                <mxCell id="4" value="" style="edgeStyle=elbowEdgeStyle;fontSize=12;html=1;endArrow=blockThin;endFill=1;startArrow=dash;startFill=0;endSize=6;startSize=6;fillColor=#1ba1e2;strokeColor=#006EAF;fontColor=#006EAF;" edge="1" parent="1">
                    <mxGeometry width="160" relative="1" as="geometry">
                        <mxPoint x="40" y="200" as="sourcePoint"/>
                        <mxPoint x="200" y="200" as="targetPoint"/>
                    </mxGeometry>
                </mxCell>
                <mxCell id="5" value="" style="dashed=1;dashPattern=8 4;endArrow=blockThin;endFill=1;startArrow=oval;startFill=0;endSize=6;startSize=4;html=1;fillColor=#1ba1e2;strokeColor=#006EAF;fontColor=#006EAF;" edge="1" parent="1">
                    <mxGeometry width="160" relative="1" as="geometry">
                        <mxPoint x="40" y="480" as="sourcePoint"/>
                        <mxPoint x="200" y="480" as="targetPoint"/>
                    </mxGeometry>
                </mxCell>
                <mxCell id="6" value="Flujo normal o no controlado&lt;br&gt;" style="text;html=1;align=center;verticalAlign=middle;resizable=0;points=[];autosize=1;strokeColor=none;fillColor=none;fontColor=#006EAF;" vertex="1" parent="1">
                    <mxGeometry x="30" y="50" width="180" height="30" as="geometry"/>
                </mxCell>
                <mxCell id="7" value="Flujo condicional" style="text;html=1;align=center;verticalAlign=middle;resizable=0;points=[];autosize=1;strokeColor=none;fillColor=none;fontColor=#006EAF;" vertex="1" parent="1">
                    <mxGeometry x="65" y="130" width="110" height="30" as="geometry"/>
                </mxCell>
                <mxCell id="8" value="Flujo predeterminado" style="text;html=1;align=center;verticalAlign=middle;resizable=0;points=[];autosize=1;strokeColor=none;fillColor=none;fontColor=#006EAF;" vertex="1" parent="1">
                    <mxGeometry x="50" y="210" width="140" height="30" as="geometry"/>
                </mxCell>
                <mxCell id="9" value="Flujo de mensaje" style="text;html=1;align=center;verticalAlign=middle;resizable=0;points=[];autosize=1;strokeColor=none;fillColor=none;fontColor=#006EAF;" vertex="1" parent="1">
                    <mxGeometry x="70" y="490" width="110" height="30" as="geometry"/>
                </mxCell>
                <mxCell id="11" value="" style="rounded=1;whiteSpace=wrap;html=1;container=1;collapsible=0;absoluteArcSize=1;arcSize=20;childLayout=stackLayout;horizontal=1;horizontalStack=0;resizeParent=1;resizeParentMax=0;resizeLast=0;fillColor=none;fontColor=#006EAF;strokeColor=#006EAF;" vertex="1" parent="1">
                    <mxGeometry x="40" y="280" width="80" height="60" as="geometry"/>
                </mxCell>
                <mxCell id="12" value="" style="rounded=1;whiteSpace=wrap;html=1;container=1;collapsible=0;absoluteArcSize=1;arcSize=20;childLayout=stackLayout;horizontal=1;horizontalStack=0;resizeParent=1;resizeParentMax=0;resizeLast=0;fillColor=none;fontColor=#006EAF;strokeColor=#006EAF;" vertex="1" parent="1">
                    <mxGeometry x="150" y="355" width="80" height="60" as="geometry"/>
                </mxCell>
                <mxCell id="10" value="" style="points=[[0.145,0.145,0],[0.5,0,0],[0.855,0.145,0],[1,0.5,0],[0.855,0.855,0],[0.5,1,0],[0.145,0.855,0],[0,0.5,0]];shape=mxgraph.bpmn.event;html=1;verticalLabelPosition=bottom;labelBackgroundColor=#ffffff;verticalAlign=top;align=center;perimeter=ellipsePerimeter;outlineConnect=0;aspect=fixed;outline=eventInt;symbol=error;fillColor=#1ba1e2;fontColor=#006EAF;strokeColor=#006EAF;" vertex="1" parent="1">
                    <mxGeometry x="50" y="325" width="30" height="30" as="geometry"/>
                </mxCell>
                <mxCell id="13" value="" style="edgeStyle=elbowEdgeStyle;fontSize=12;html=1;endArrow=blockThin;endFill=1;exitX=0.5;exitY=1;exitDx=0;exitDy=0;exitPerimeter=0;entryX=0;entryY=0.5;entryDx=0;entryDy=0;fillColor=#1ba1e2;strokeColor=#006EAF;fontColor=#006EAF;" edge="1" parent="1" source="10" target="12">
                    <mxGeometry width="160" relative="1" as="geometry">
                        <mxPoint x="300" y="410" as="sourcePoint"/>
                        <mxPoint x="460" y="410" as="targetPoint"/>
                        <Array as="points">
                            <mxPoint x="65" y="390"/>
                        </Array>
                    </mxGeometry>
                </mxCell>
                <mxCell id="14" value="Flujo de excepciÃ³n" style="text;html=1;align=center;verticalAlign=middle;resizable=0;points=[];autosize=1;strokeColor=none;fillColor=none;fontColor=#006EAF;" vertex="1" parent="1">
                    <mxGeometry x="65" y="420" width="120" height="30" as="geometry"/>
                </mxCell>
            </root>
        </mxGraphModel>
    </diagram>
</mxfile>